**ABCDEFGHIJKLMNOPQRSTUVWXYZabcdefghijklmnopqrstuvwxyz**************************
**PARASOLID !"#$%&'()*+,-./:;<=>?@[\]^_`{|}~0123456789**************************
**PART1;
MC=AMD64;
MC_MODEL=Intel64 Family 6 Model 141 Stepping 1, GenuineIntel;
MC_ID=unknown;
OS=Windows_NT;
OS_RELEASE=unknown;
FRU=Parasolid Version 35.1, build 251, 11- 4-2023;
APPL=SOLIDWORKS 2024-2024078;
SITE=;
USER=unknown;
FORMAT=text;
GUISE=transmit;
KEY=Beam_geometry;
FILE=Beam_geometry.x_t;
DATE=Fri Nov 22 12:32:21 2024;
**PART2;
SCH=SCH_3501251_35102;
USFLD_SIZE=0;
**PART3;
**END_OF_HEADER*****************************************************************
T51 : TRANSMIT FILE created by modeller version 350125123 SCH_3501251_35102_1300
6231 0 12 36 CCCI7 lattice222 0 CCCI4 mesh1006 0 I8 polyline1008 0 CCCCCCCDI5 ow
ner1040 0 CCCI16 boundary_lattice222 0 CCCI13 boundary_mesh1006 0 I17 boundary_p
olyline1008 0 CCCA16 index_map_offset0 0 1 dA9 index_map82 0 A17 node_id_index_m
ap82 0 A20 schema_embedding_map82 0 A5 child12 0 A14 lowest_node_id0 0 1 dA16 me
sh_offset_data206 0 Z1 488 2 3 0 0 0 0 0 0 0 1e3 1e-8 0 4 0 1 0 1 1 5 0 6 7 8 0
 0 9 10 11 0 0 0 0 0 0 0 81 255 2 2 460 12 1 13 0 0 0 0 14 70 11 CI9 list_type0
 0 1 uI10 notransmit0 0 1 lCCCDCCDI12 finger_index0 0 1 dI12 finger_block1012 0
 CZ3 0 4 T1 0 0 11 20 1 15 15 13 255 5 267 0 1 0 16 0 0 17 0 50 255 6 254 0 16 1
8 0 0 +.6 -.09 -.1 0 0 1 1 0 0 30 255 7 266 0 10 19 0 0 +.6 -.09 -.1 -1 0 0 29 2
55 8 195 0 20 21 0 0 -.1 -.1 19 9 CCCCCCI5 frame230 0 CA5 owner12 0 Z9 89 0 1 17
 0 22 0 V0 16 255 10 218 0 ?23 0 24 7 0 0 1 18 255 11 86 0 25 0 26 27 ?1 17 255
 25 0 28 29 30 11 31 32 0 33 +18 26 83 0 30 11 34 35 ?1 29 27 88 0 11 35 36 .6 -
.1 -.1 29 35 85 0 26 37 27 .6 -.1 .1 29 36 206 0 38 27 39 0 -.09 -.1 18 38 181 0
 40 41 0 36 ?1 29 39 205 0 41 36 42 0 -.09 -.005 18 41 180 0 43 44 38 39 ?1 29 4
2 204 0 44 39 45 0 .09 -.005 18 44 179 0 46 47 41 42 ?1 29 45 203 0 47 42 48 0 .
09 -.1 18 47 178 0 49 50 44 45 ?1 29 48 202 0 50 45 51 0 .1 -.1 18 50 177 0 52 5
3 47 48 ?1 29 51 201 0 53 48 54 0 .1 .1 18 53 176 0 55 56 50 51 ?1 29 54 200 0 5
6 51 57 0 .09 .1 18 56 175 0 58 59 53 54 ?1 29 57 199 0 59 54 60 0 .09 .005 18 5
9 174 0 61 62 56 57 ?1 29 60 198 0 62 57 63 0 -.09 .005 18 62 173 0 64 65 59 60
 ?1 29 63 197 0 65 60 21 0 -.09 .1 18 65 172 0 66 67 62 63 ?1 29 21 196 0 67 63
 8 0 -.1 .1 18 67 171 0 68 20 65 21 ?1 17 68 0 69 70 71 67 72 73 0 74 +18 20 170
 0 75 76 67 8 ?1 17 75 0 77 33 74 20 78 79 0 80 +18 76 53 0 81 82 20 83 ?1 17 81
 0 84 23 85 76 86 87 0 29 -18 82 56 0 86 88 76 89 ?1 29 83 55 0 76 0 89 .6 -.09
 -.1 29 89 58 0 82 83 90 .6 -.09 -.005 29 90 61 0 88 89 91 .6 .09 -.005 18 88 59
 0 92 93 82 90 ?1 29 91 64 0 93 90 94 .6 .09 -.1 18 93 62 0 95 96 88 91 ?1 29 94
 67 0 96 91 97 .6 .1 -.1 18 96 65 0 98 99 93 94 ?1 29 97 70 0 99 94 100 .6 .1 .1
 18 99 68 0 101 102 96 97 ?1 29 100 73 0 102 97 103 .6 .09 .1 18 102 71 0 104 10
5 99 100 ?1 29 103 76 0 105 100 106 .6 .09 .005 18 105 74 0 107 108 102 103 ?1 2
9 106 79 0 108 103 37 .6 -.09 .005 18 108 77 0 109 34 105 106 ?1 29 37 82 0 34 1
06 35 .6 -.09 .1 18 34 80 0 110 26 108 37 ?1 17 110 0 28 30 109 34 111 112 0 113
 +15 255 28 4 0 29 114 0 17 30 0 28 25 110 26 115 116 0 70 +17 109 0 28 110 107
 108 117 118 0 119 +17 111 0 120 121 113 108 110 112 0 0 -16 112 41 0 ?110 116 1
18 122 0 0 1 17 113 0 120 111 66 34 71 123 0 115 -15 120 223 0 66 124 0 17 66 0
 120 113 121 65 125 126 0 71 +17 71 0 69 68 115 65 113 123 0 72 +16 123 209 0 ?7
1 127 128 129 0 0 1 17 115 0 69 71 70 34 30 116 0 0 -15 69 221 0 68 130 0 17 70
 0 69 115 68 26 74 128 0 31 -16 116 45 0 ?30 32 112 131 0 0 1 16 32 49 0 ?25 132
 116 133 0 0 1 30 131 47 0 116 122 133 0 +.6 -.09 .1 0 -1 0 30 122 43 0 112 134
 131 0 +.6 -.09 .005 0 -1460819769243626e-31 1 30 133 51 0 32 131 135 0 +.6 -.1
 .1 0 0 -1 30 135 194 0 136 133 137 0 +0 -.09 -.1 0 1 0 16 136 166 0 ?138 139 0
 135 0 0 1 30 137 193 0 139 135 140 0 +0 -.09 -.005 0 1460819769243626e-31 1 16
 139 162 0 ?43 141 136 137 0 0 1 30 140 192 0 141 137 142 0 +0 .09 -.005 0 1 -13
9741613342576e-30 16 141 158 0 ?46 143 139 140 0 0 1 30 142 191 0 143 140 144 0
 +0 .09 -.1 0 0 -1 16 143 154 0 ?49 145 141 142 0 0 1 30 144 190 0 145 142 146 0
 +0 .1 -.1 0 1 -1387778780781446e-30 16 145 150 0 ?52 147 143 144 0 0 1 30 146 1
89 0 147 144 148 0 +0 .1 -.1 0 0 1 16 147 146 0 ?55 149 145 146 0 0 1 30 148 188
 0 149 146 150 0 +0 .1 .1 0 -1 -1387778780781446e-30 16 149 142 0 ?58 151 147 14
8 0 0 1 30 150 187 0 151 148 152 0 +0 .09 .1 0 0 -1 16 151 138 0 ?61 153 149 150
 0 0 1 30 152 186 0 153 150 154 0 +0 .09 .005 0 -1 -139741613342576e-30 16 153 1
34 0 ?64 126 151 152 0 0 1 30 154 185 0 126 152 155 0 +0 -.09 .005 0 -1460819769
243626e-31 1 16 126 130 0 ?66 73 153 154 0 0 1 30 155 184 0 73 154 156 0 +0 -.09
 .1 0 -1 0 16 73 126 0 ?68 79 126 155 0 0 1 30 156 183 0 79 155 157 0 +0 -.1 .1
 0 0 -1 16 79 122 0 ?75 158 73 156 0 0 1 30 157 255 0 132 156 159 0 +.6 -.1 -.1
 -1 0 0 16 132 207 0 ?80 128 32 157 0 0 1 30 159 256 0 128 157 129 0 +.6 -.1 .1
 -1 0 0 16 128 208 0 ?74 123 132 159 0 0 1 30 129 257 0 123 159 160 0 +.6 -.09 .
1 -1 0 0 30 160 258 0 127 129 161 0 +.6 -.09 .005 -1 0 0 16 127 210 0 ?121 162 1
23 160 0 0 1 30 161 259 0 162 160 163 0 +.6 .09 .005 -1 0 0 16 162 211 0 ?164 16
5 127 161 0 0 1 30 163 260 0 165 161 166 0 +.6 .09 .1 -1 0 0 16 165 212 0 ?167 1
68 162 163 0 0 1 30 166 261 0 168 163 169 0 +.6 .1 .1 -1 0 0 16 168 213 0 ?170 1
71 165 166 0 0 1 30 169 262 0 171 166 172 0 +.6 .1 -.1 -1 0 0 16 171 214 0 ?173
 174 168 169 0 0 1 30 172 263 0 174 169 175 0 +.6 .09 -.1 -1 0 0 16 174 215 0 ?1
76 177 171 172 0 0 1 30 175 264 0 177 172 19 0 +.6 .09 -.005 -1 0 0 16 177 216 0
 ?178 24 174 175 0 0 1 30 19 265 0 24 175 7 0 +.6 -.09 -.005 -1 0 0 16 24 217 0
 ?179 10 177 19 0 0 1 17 179 0 180 46 181 41 85 24 0 182 +15 180 237 0 46 183 0
 17 46 0 180 184 179 44 182 141 0 178 +17 181 0 180 179 184 82 92 185 0 0 -17 85
 0 84 81 43 82 179 24 0 181 -17 182 0 186 40 187 41 46 141 0 0 -15 186 121 0 188
 189 0 17 40 0 186 188 182 38 43 139 0 23 -17 187 0 186 182 190 44 49 143 0 0 -1
7 190 0 186 187 191 47 52 145 0 0 -17 49 0 192 193 178 47 187 143 0 176 +15 192
 235 0 49 194 0 17 193 0 192 195 49 93 176 174 0 196 -17 178 0 192 49 195 44 184
 177 0 187 +17 176 0 197 52 196 47 193 174 0 190 +15 197 233 0 52 198 0 17 52 0
 197 199 176 50 190 145 0 173 +17 196 0 197 176 199 93 98 200 0 0 -17 199 0 197
 196 52 96 173 171 0 201 -17 98 0 28 101 95 96 196 200 0 199 +16 200 21 0 ?98 20
2 203 204 0 0 1 16 202 25 0 ?101 205 200 206 0 0 1 16 203 17 0 ?95 200 185 207 0
 0 1 30 204 23 0 200 207 206 0 +.6 .1 -.1 0 1 -1387778780781446e-30 30 207 19 0
 203 208 204 0 +.6 .09 -.1 0 0 -1 30 206 27 0 202 204 209 0 +.6 .1 -.1 0 0 1 30
 209 31 0 205 206 210 0 +.6 .1 .1 0 -1 -1387778780781446e-30 16 205 29 0 ?104 21
1 202 209 0 0 1 30 210 35 0 211 209 134 0 +.6 .09 .1 0 0 -1 16 211 33 0 ?107 118
 205 210 0 0 1 30 134 39 0 118 210 122 0 +.6 .09 .005 0 -1 -139741613342576e-30
 16 118 37 0 ?109 112 211 134 0 0 1 17 107 0 28 109 104 105 212 211 0 213 +17 10
4 0 28 107 101 102 214 205 0 215 +17 212 0 216 167 213 102 107 211 0 0 -17 213 0
 216 212 61 105 164 162 0 117 -15 216 227 0 61 217 0 17 61 0 216 213 167 59 218
 151 0 164 +17 164 0 219 64 117 59 213 162 0 220 +17 117 0 219 164 119 105 109 1
18 0 0 -15 219 225 0 64 221 0 17 119 0 219 117 64 108 121 127 0 111 -17 64 0 219
 119 164 62 220 153 0 121 +17 121 0 120 66 111 62 119 127 0 125 +17 125 0 186 22
0 72 62 66 126 0 0 -17 220 0 186 218 125 59 64 153 0 0 -17 72 0 186 125 78 65 68
 73 0 0 -17 78 0 186 72 188 67 75 79 0 0 -17 188 0 186 78 40 20 138 136 0 0 -17
 138 0 222 223 80 38 188 136 0 0 +15 222 241 0 138 16 0 17 223 0 222 224 138 76
 23 10 0 0 -17 80 0 222 138 224 20 33 132 0 188 +17 224 0 222 80 223 11 29 158 0
 0 -17 33 0 77 31 75 11 80 132 0 224 -15 77 219 0 75 225 0 17 31 0 77 74 33 26 2
5 32 0 0 -17 74 0 77 75 31 67 70 128 0 78 +14 255 225 220 226 ?114 130 77 5 227
 -0 0 114 130 22 81 1 226 462 228 225 229 0 0 230 231 14 114 1 230 ?189 225 28 5
 232 +0 0 189 225 22 14 130 222 233 ?225 124 69 5 234 -0 0 225 124 22 50 227 243
 0 225 235 234 0 +.6 -.1 .1 0 1 0 0 0 1 13 22 90 0 0 0 0 0 0 9 16 14 16 242 236
 ?237 0 222 5 6 -0 0 237 0 22 81 1 236 468 228 16 238 0 233 239 240 14 237 240 2
39 ?183 16 84 5 18 -0 0 183 16 22 81 1 239 470 228 237 241 0 236 242 243 14 183
 238 242 ?194 237 180 5 244 -0 0 194 237 22 15 84 239 0 43 237 0 50 18 253 0 237
 244 6 0 +.6 -.09 -.005 0 -1 1460819769243626e-31 0 -1460819769243626e-31 -1 50
 244 252 0 183 245 18 0 +.6 .09 -.005 0 1397416133425762e-31 1 0 -1 139741613342
5762e-31 50 245 251 0 194 246 244 0 +.6 .09 -.1 0 1 0 0 0 1 14 194 236 247 ?198
 183 192 5 245 -0 0 198 183 22 50 246 250 0 198 248 245 0 +.6 .1 -.1 0 138777878
0781446e-30 1 0 -1 1387778780781446e-30 14 198 234 249 ?250 194 197 5 246 -0 0 2
50 194 22 50 248 249 0 250 251 246 0 +.6 .1 -.1 0 -1 0 0 0 -1 14 250 232 252 ?25
3 198 254 5 248 -0 0 253 198 22 50 251 248 0 253 255 248 0 +.6 .1 .1 0 138777878
0781446e-30 -1 0 1 1387778780781446e-30 14 253 230 256 ?217 250 257 5 251 -0 0 2
17 250 22 50 255 247 0 217 258 251 0 +.6 .09 .1 0 1 0 0 0 1 14 217 228 259 ?221
 253 216 5 255 -0 0 221 253 22 50 258 246 0 221 260 255 0 +.6 .09 .005 0 1397416
133425762e-31 -1 0 1 1397416133425762e-31 14 221 226 261 ?124 217 219 5 258 -0 0
 124 217 22 50 260 245 0 124 234 258 0 +.6 -.09 .005 0 -1 -1460819769243626e-31
 0 1460819769243626e-31 -1 14 124 224 262 ?130 221 120 5 260 -0 0 130 221 22 50
 234 244 0 130 227 260 0 +.6 -.09 .1 0 0 -1 -1 0 0 81 1 262 486 228 124 263 0 26
1 264 265 80 7 CCCCCDI12 legal_owners0 16 1 lCZ1 228 266 267 9000 1 1 1 1 1 1 1
 1 0 FFFFTFTFFFFFFFFF1 81 3 263 485 268 124 269 262 270 271 272 0 0 81 1 261 484
 228 221 270 0 259 262 273 81 1 264 488 228 189 271 0 262 0 274 82 255 1 265 318
963820 14 189 120 264 ?0 114 186 5 235 -0 0 0 114 22 81 3 271 487 268 189 275 26
4 263 0 276 0 0 82 1 274 315949164 80 3 268 277 278 9000 0 0 0 0 3 5 0 0 0 FFFFT
FFFFFFFFFFF1 1 1 81 1 275 416 279 189 280 271 281 0 282 82 6 276 0 704239270 311
45170 0 0 0 80 1 279 283 284 8015 0 0 0 0 3 5 0 0 0 FFFFTFFFFFFFFFFF2 81 1 280 4
15 285 189 0 275 286 0 287 81 1 281 414 279 114 286 288 289 275 290 83 255 1 282
 0 81 1 286 413 285 114 0 281 291 280 292 81 3 288 463 268 114 281 230 229 293 2
94 0 0 81 1 289 412 279 225 291 229 295 281 296 83 1 290 0 81 1 291 411 285 225
 0 289 297 286 298 81 3 229 461 268 225 289 226 0 288 299 0 0 81 1 295 410 279 1
30 297 293 269 289 300 83 1 296 0 81 1 297 409 285 130 0 295 301 291 302 81 3 29
3 465 268 130 295 233 288 238 303 0 0 81 1 269 408 279 124 301 263 304 295 305 8
3 1 300 0 81 1 301 407 285 124 0 269 306 297 307 81 1 304 406 279 221 306 270 30
8 269 309 83 1 305 0 81 1 306 405 285 221 0 304 310 301 311 81 3 270 483 268 221
 304 261 312 263 313 0 0 81 1 308 404 279 217 310 312 314 304 315 83 1 309 0 81
 1 310 403 285 217 0 308 316 306 317 81 3 312 481 268 217 308 259 318 270 319 0
 0 81 1 314 402 279 253 316 318 320 308 321 83 1 315 0 81 1 316 401 285 253 0 31
4 322 310 323 81 3 318 479 268 253 314 256 324 312 325 0 0 81 1 320 400 279 250
 322 324 326 314 327 83 1 321 0 81 1 322 399 285 250 0 320 328 316 329 81 3 324
 477 268 250 320 252 330 318 331 0 0 81 1 326 398 279 198 328 330 332 320 333 83
 1 327 0 81 1 328 397 285 198 0 326 334 322 335 81 3 330 475 268 198 326 249 336
 324 337 0 0 81 1 332 396 279 194 334 336 338 326 339 83 1 333 0 81 1 334 395 28
5 194 0 332 340 328 341 81 3 336 473 268 194 332 247 342 330 343 0 0 81 1 338 39
4 279 183 340 342 344 332 345 83 1 339 0 81 1 340 393 285 183 0 338 346 334 347
 81 3 342 471 268 183 338 242 241 336 348 0 0 81 1 344 392 279 237 346 241 349 3
38 350 83 1 345 0 81 1 346 391 285 237 0 344 351 340 352 81 3 241 469 268 237 34
4 239 238 342 353 0 0 81 1 349 390 279 16 351 238 0 344 354 83 1 350 0 81 1 351
 389 285 16 0 349 0 346 355 81 3 238 467 268 16 349 236 293 241 356 0 0 83 1 354
 0 82 6 356 0 704239270 31145170 0 0 0 80 1 285 0 357 8001 0 0 0 0 3 5 0 0 0 FFF
FTFTFFFFFFFFF2 83 3 355 .792156862745098 .819607843137255 .933333333333333 79 25
5 15 357 SDL/TYSA_COLOUR82 6 353 0 704239270 31145170 0 0 0 83 3 352 .7921568627
45098 .819607843137255 .933333333333333 81 1 242 472 228 183 342 0 239 247 358 8
2 6 348 0 704239270 31145170 0 0 0 81 1 247 474 228 194 336 0 242 249 359 82 1 3
58 320798828 81 1 249 476 228 198 330 0 247 252 360 82 1 359 320536684 81 1 252
 478 228 250 324 0 249 256 361 82 1 360 320274540 81 1 256 480 228 253 318 0 252
 259 362 82 1 361 320012396 81 1 259 482 228 217 312 0 256 261 363 82 1 362 3197
50252 82 1 363 319488108 83 3 347 .792156862745098 .819607843137255 .93333333333
3333 82 6 343 0 704239270 31145170 0 0 0 83 3 341 .792156862745098 .819607843137
255 .933333333333333 82 6 337 0 704239270 31145170 0 0 0 83 3 335 .7921568627450
98 .819607843137255 .933333333333333 82 6 331 0 704239270 31145170 0 0 0 83 3 32
9 .792156862745098 .819607843137255 .933333333333333 82 6 325 0 704239270 311451
70 0 0 0 83 3 323 .792156862745098 .819607843137255 .933333333333333 82 6 319 0
 704239270 31145170 0 0 0 83 3 317 .792156862745098 .819607843137255 .9333333333
33333 82 6 313 0 704239270 31145170 0 0 0 83 3 311 .792156862745098 .81960784313
7255 .933333333333333 83 3 307 .792156862745098 .819607843137255 .93333333333333
3 81 1 233 466 228 130 293 0 230 236 364 82 6 303 0 704239270 31145170 0 0 0 81
 1 230 464 228 114 288 0 226 233 365 82 1 364 318701676 82 1 365 300875884 83 3
 302 .792156862745098 .819607843137255 .933333333333333 82 6 299 0 704239270 311
45170 0 0 0 83 3 298 .792156862745098 .819607843137255 .933333333333333 82 6 294
 0 704239270 31145170 0 0 0 83 3 292 .792156862745098 .819607843137255 .93333333
3333333 83 3 287 .792156862745098 .819607843137255 .933333333333333 79 21 284 SD
L/TYSA_TRANSLUCENCY79 18 278 DOWNSTREAM_FACE_ID50 235 182 0 189 232 227 0 +0 0 0
 1 0 0 0 0 -1 50 232 3 0 114 0 235 0 +.6 0 0 1 0 0 0 0 -1 82 1 273 319225964 82
 6 272 0 704239270 31145170 0 0 0 79 14 267 SWEntUnchanged15 257 229 0 58 253 0
 17 58 0 257 215 170 56 366 149 0 167 +17 215 0 257 214 58 102 167 165 0 212 -17
 170 0 257 58 214 53 367 168 0 366 +17 366 0 186 191 218 53 58 149 0 0 -17 167 0
 216 61 212 56 215 165 0 218 +17 218 0 186 366 220 56 61 151 0 0 -17 191 0 186 1
90 366 50 55 147 0 0 -17 55 0 254 367 173 53 191 147 0 170 +15 254 231 0 55 250
 0 17 367 0 254 201 55 99 170 168 0 214 -17 173 0 254 55 201 50 199 171 0 191 +1
7 201 0 254 173 367 96 101 202 0 0 -17 101 0 28 104 98 99 201 202 0 367 +17 214
 0 257 170 215 99 104 205 0 0 -17 43 0 84 85 23 41 40 139 0 179 +17 23 0 84 43 8
1 38 223 10 0 138 +82 1 243 321060972 82 1 240 321323116 82 1 231 318439532 17 2
9 0 28 86 25 76 224 158 0 223 +16 158 5 0 ?29 87 79 368 0 0 1 16 87 9 0 ?86 185
 158 369 0 0 1 30 368 7 0 158 0 369 0 +.6 -.09 -.1 0 1 0 30 369 11 0 87 368 208
 0 +.6 -.09 -.005 0 1460819769243626e-31 1 30 208 15 0 185 369 207 0 +.6 .09 -.0
05 0 1 -139741613342576e-30 16 185 13 0 ?92 203 87 208 0 0 1 17 92 0 28 95 86 88
 181 185 0 184 +17 95 0 28 98 92 93 195 203 0 193 +17 86 0 28 92 29 82 81 87 0 8
5 +17 184 0 180 181 46 88 178 177 0 195 -17 195 0 192 178 193 88 95 203 0 0 -19
 17 268 0 1 0 9 5 0 S0 74 4 CI16 index_map_offset0 0 1 dCCZ20 15 11 0 0 271 370
 371 372 264 373 374 13 280 275 2 0 0 0 0 0 0 0 0 0 81 2 370 338 375 1 0 371 0 0
 0 376 81 2 371 342 377 1 370 372 0 0 0 378 81 2 372 343 379 1 371 373 0 0 380 0
 81 1 373 358 381 1 372 374 0 0 382 81 2 374 359 383 1 373 13 0 0 0 0 81 2 13 38
8 384 1 374 2 0 0 0 385 80 2 384 386 387 9000 0 0 0 0 3 5 0 0 0 FFTFFFFFFFFFFFFF
9 1 82 1 385 1 79 24 387 BODY_IN_LIGHTWEIGHT_PERM80 2 383 388 389 9000 0 0 0 0 3
 5 0 0 0 FFTFFFFFFFFFFFFF9 1 79 16 389 BODY_RECIPE_200180 1 381 390 391 9000 1 1
 1 1 1 1 1 1 0 FFTFFFFFFFFFFFFF1 82 1 382 4589 79 10 391 BODY_MATCH80 2 379 392
 393 9000 0 0 0 0 3 5 0 0 0 FFTFTTTFFTFFFFFF10 10 98 255 13 380 66 111 115 115 4
5 69 120 116 114 117 100 101 49 79 23 393 SWIMPLICITBODYNAME_ID_U80 2 377 394 39
5 9000 0 0 0 0 3 5 0 0 0 FFTFFFFFFFFFFFFF9 1 82 1 378 42 79 30 395 LAST_BODY_MOD
IFYING_FEATURE_ID80 2 375 396 397 9000 0 0 0 0 3 5 0 0 0 FFTFFFFFFFFFFFFF9 1 82
 1 376 106 79 19 397 ENT_TIME_STAMP_200180 2 12 398 399 9000 0 0 0 0 3 5 0 0 0 F
FTFFFFFFFFFFFFF9 1 82 1 14 101 79 12 399 ATOM_ID_20011 0 
